<?xml version="1.0" encoding="utf-8"?>
<!-- Generator: Adobe Illustrator 16.0.0, SVG Export Plug-In . SVG Version: 6.00 Build 0)  -->
<!DOCTYPE svg PUBLIC "-//W3C//DTD SVG 1.1//EN" "http://www.w3.org/Graphics/SVG/1.1/DTD/svg11.dtd">
<svg version="1.1" id="Layer_1" xmlns="http://www.w3.org/2000/svg" xmlns:xlink="http://www.w3.org/1999/xlink" x="0px" y="0px"
	 width="512px" height="512px" viewBox="0 0 512 512" enable-background="new 0 0 512 512" xml:space="preserve">
<path d="M352,368H160c-8.844,0-16-7.156-16-16s7.156-16,16-16h192c8.844,0,16,7.156,16,16S360.844,368,352,368z M368,400
	c0-8.844-7.156-16-16-16H160c-8.844,0-16,7.156-16,16s7.156,16,16,16h192C360.844,416,368,408.844,368,400z M336,448
	c0-8.844-7.156-16-16-16H192c-8.844,0-16,7.156-16,16s7.156,16,16,16h128C328.844,464,336,456.844,336,448z M138.719,316.188
	c6.563-5.906,7.094-16.031,1.156-22.594c-56.813-62.969-53.563-158.438,7.406-217.344c60.969-58.938,156.5-58.938,217.438,0
	c60.969,58.906,64.219,154.375,7.406,217.344c-5.938,6.563-5.406,16.688,1.156,22.594s16.688,5.375,22.594-1.156
	c68.438-75.844,64.531-190.844-8.906-261.781c-73.406-71-188.469-71-261.938,0c-73.438,70.938-77.344,185.938-8.906,261.781
	c3.156,3.5,7.5,5.281,11.875,5.281C131.813,320.313,135.656,318.938,138.719,316.188z M304,496c0-8.844-7.156-16-16-16h-64
	c-8.844,0-16,7.156-16,16s7.156,16,16,16h64C296.844,512,304,504.844,304,496z"/>
</svg>
